<svg width="140" height="110" viewBox="0 0 140 110" fill="none" xmlns="http://www.w3.org/2000/svg">
<path d="M71.6485 51.1627V40.9302C71.6485 39.5174 70.5032 38.3721 69.0904 38.3721C67.6775 38.3721 66.5322 39.5174 66.5322 40.9302V51.1627C66.5322 52.5755 67.6775 53.7208 69.0904 53.7208C70.5032 53.7208 71.6485 52.5755 71.6485 51.1627Z" fill="#FFC59E"/>
<path d="M82.5426 61.6469V65.5019C75.3955 61.9641 64.7224 62.7009 57.5753 66.2387L57.2709 66.3922C54.2289 67.9359 51.0763 69.251 47.839 70.3266C50.7174 72.4337 53.0879 75.1581 54.7767 78.3003C61.0055 102.225 43.648 107.7 42.3963 108.357C41.1445 109.014 56.3361 97.4154 50.3405 80.6947C47.839 76.2808 44.2542 73.3557 39.8756 71.5622C38.7807 71.0666 38.1784 69.8756 38.4282 68.7C38.6779 67.5244 39.7124 66.6812 40.9142 66.6736C40.9372 66.6608 45.6007 66.4919 54.9839 61.8003L55.2909 61.6469C63.877 57.3938 73.9565 57.3938 82.5426 61.6469Z" fill="#FFC59E"/>
<path d="M56.6586 61.6469L57.2581 65.352C64.4053 61.8142 74.4788 62.7009 81.6259 66.2387L81.9303 66.3922C84.9723 67.9359 88.1249 69.251 91.3621 70.3266C88.4838 72.4337 86.1133 75.1581 84.4245 78.3003C78.1957 102.225 95.5531 107.7 96.8049 108.357C98.0567 109.014 82.8651 97.4154 88.8607 80.6947C91.3621 76.2808 94.9469 73.3557 99.3256 71.5622C100.42 71.0666 101.023 69.8756 100.773 68.7C100.523 67.5244 99.4888 66.6812 98.287 66.6736C98.264 66.6608 93.6005 66.4919 84.2173 61.8003L83.9103 61.6469C75.3242 57.3938 65.2447 57.3938 56.6586 61.6469Z" fill="#FFC59E"/>
<path d="M33.507 110C17.7285 110 8.81594 93.7836 5.71548 86.8127C-2.89518 67.5141 -1.721 47.4482 8.86198 33.1406C11.0919 30.1259 13.6482 28.0985 14.2264 27.4283C17.5455 24.6377 21.4301 22.5998 25.6126 21.455C28.9491 20.5418 33.2443 20.4401 34.4356 20.5392C37.5697 20.8118 44.6143 23.6115 47.0446 27.5536C47.4828 28.2643 47.8357 29.0242 48.096 29.8176C49.151 33.3472 48.7117 37.1551 46.8809 40.3519C52.0662 39.3952 58.8581 36.965 58.8581 30.6976V5.11626C58.8581 2.29063 61.1487 0 63.9743 0H74.2068C77.0325 0 79.3231 2.29063 79.3231 5.11626H63.9641V30.6976C63.9641 45.8698 42.0307 46.0719 41.097 46.0719C40.0227 46.0728 39.0623 45.4023 38.6928 44.3935C38.3234 43.3847 38.6236 42.2525 39.4444 41.5594C42.5839 39.1958 44.0579 35.2194 43.2177 31.3806C42.1074 27.8785 37.6665 25.9573 34.0084 25.6478C25.6535 25.3139 17.7119 29.2915 12.9755 36.1822C3.50526 48.9856 2.53829 67.1355 10.3892 84.7329C13.0829 90.7931 20.7419 104.883 33.507 104.883C36.2466 104.902 39.4212 104.691 42.7188 103.402C49.3139 100.825 50.6629 93.6815 53.361 94.8806C54.0968 95.4513 49.7574 102.482 49.6137 103.402C49.47 104.322 44.2792 107.836 43.4044 108.155C40.2523 109.393 36.8933 110.019 33.507 110Z" fill="#FFC59E"/>
<path d="M105.772 110C121.551 110 130.463 93.7836 133.564 86.8127C142.174 67.5141 141 47.4482 130.417 33.1406C128.187 30.1259 125.631 28.0985 125.053 27.4283C121.734 24.6377 117.849 22.5998 113.667 21.455C110.33 20.5418 106.035 20.4401 104.844 20.5392C101.71 20.8118 94.665 23.6115 92.2347 27.5536C91.7965 28.2643 91.4436 29.0242 91.1833 29.8176C90.1283 33.3472 90.5676 37.1551 92.3984 40.3519C87.2131 39.3952 80.4212 36.965 80.4212 30.6976V5.11626C80.4212 2.29063 78.1306 0 75.305 0H65.0725C62.2468 0 59.9562 2.29063 59.9562 5.11626H75.3152V30.6976C75.3152 45.8698 97.2486 46.0719 98.1823 46.0719C99.2566 46.0728 100.217 45.4023 100.586 44.3935C100.956 43.3847 100.656 42.2525 99.8349 41.5594C96.6954 39.1958 95.2214 35.2194 96.0616 31.3806C97.1719 27.8785 101.613 25.9573 105.271 25.6478C113.626 25.3139 121.567 29.2915 126.304 36.1822C135.774 48.9856 136.741 67.1355 128.89 84.7329C126.196 90.7931 118.537 104.883 105.772 104.883C103.033 104.902 99.8581 104.691 96.5605 103.402C89.9654 100.825 88.6163 93.6815 85.9183 94.8806C85.1825 95.4513 89.5219 102.482 89.6656 103.402C89.8093 104.322 95.0001 107.836 95.8749 108.155C99.027 109.393 102.386 110.019 105.772 110Z" fill="#FFC59E"/>
<path d="M17.0804 39.2235C14.1235 43.2624 12.0793 47.8954 11.0892 52.8021C10.7991 54.1845 11.6844 55.5404 13.0667 55.8309C13.2401 55.8663 13.4166 55.8843 13.5936 55.8846C14.8066 55.8812 15.8504 55.0265 16.0929 53.8381C16.936 49.6526 18.6753 45.6993 21.1913 42.2498C23.7706 38.5122 27.9052 36.1452 32.4343 35.8135C33.8471 35.8135 34.9924 34.6682 34.9924 33.2554C34.9924 31.8426 33.8471 30.6973 32.4343 30.6973C26.2728 31.0108 20.6036 34.159 17.0804 39.2235Z" fill="#FFC59E"/>
<path d="M118.638 91.3058C121.595 87.2669 123.639 82.6339 124.63 77.7272C124.92 76.3448 124.034 74.9889 122.652 74.6984C122.479 74.663 122.302 74.645 122.125 74.6447C120.912 74.6481 119.868 75.5028 119.626 76.6912C118.783 80.8767 117.043 84.83 114.527 88.2795C111.948 92.0171 107.814 94.3841 103.284 94.7158C101.872 94.7158 100.726 95.8611 100.726 97.2739C100.726 98.6867 101.872 99.832 103.284 99.832C109.446 99.5185 115.115 96.3703 118.638 91.3058Z" fill="#FFC59E"/>
</svg>
