<svg width="89" height="91" viewBox="0 0 89 91" fill="none" xmlns="http://www.w3.org/2000/svg">
<path d="M30.0996 3.5C35.5511 3.5 39.3645 7.4597 41.5986 11.3887C42.5543 13.0694 43.3274 14.9178 43.9072 16.8037C44.4777 15.0837 45.2178 13.3927 46.1162 11.8438C48.3476 7.99659 52.1595 4.04999 57.5996 4.0498C61.9891 4.0498 65.0337 6.75194 66.8047 9.7627C68.5519 12.7329 69.3496 16.3965 69.3496 19.6504C69.3495 22.8793 68.4919 26.7264 66.9238 30.1826C68.9307 28.6919 71.3308 27.7003 74.0996 27.7002C77.7783 27.7002 80.5428 29.8108 82.2373 32.3525C83.9093 34.8606 84.7499 38.0326 84.75 41.0996C84.75 45.3725 83.3049 50.2798 80.8389 54.1777C78.4184 58.0035 74.4617 61.6502 69.1504 61.6504C68.8349 61.6504 68.5262 61.6346 68.2246 61.6084C71.1948 66.5092 73.2001 71.9044 73.2002 76.8496C73.2002 81.047 71.361 84.0311 68.4238 85.7256C65.8169 87.2295 62.7129 87.5 60.3496 87.5C56.5349 87.4999 53.1712 86.1071 50.5654 85.0381C47.7172 83.8696 45.7769 83.0996 43.8496 83.0996C41.6015 83.0997 39.4807 83.9084 36.5283 85.0605C33.762 86.1401 30.2962 87.5 26.25 87.5C23.7117 87.5 20.7854 87.0415 18.416 85.3184C15.8454 83.4487 14.5 80.5162 14.5 76.8496C14.5001 71.9164 16.4958 66.5358 19.4541 61.6445C19.3371 61.6483 19.2186 61.6504 19.0996 61.6504C14.0204 61.6502 10.0764 57.9435 7.64453 54.2197C5.12925 50.3681 3.5 45.4503 3.5 41.0996C3.50006 38.1792 4.13752 35.0006 5.75684 32.4287C7.46086 29.7224 10.2873 27.7002 14.1504 27.7002C16.3787 27.7003 18.388 28.4141 20.1475 29.5293C18.7589 26.0965 18.119 22.2973 18.3516 18.9629C18.3737 15.7435 19.1729 12.1414 20.8955 9.21289C22.6665 6.20222 25.7104 3.50016 30.0996 3.5ZM43.8496 31.8496C43.5057 32.7666 43.0941 33.6549 42.6045 34.4873C40.8335 37.4979 37.7896 40.2 33.4004 40.2002C31.1799 40.2002 29.2175 39.6019 27.5127 38.6309C28.9111 41.7286 29.75 45.1339 29.75 48.25C29.75 48.739 29.7297 49.235 29.6924 49.7344C30.8694 48.7707 32.0816 47.8929 33.3135 47.1221C36.5678 45.0857 40.2072 43.6505 43.8496 43.6504C47.4922 43.6504 51.1323 45.0857 54.3867 47.1221C55.8266 48.0231 57.2389 49.0711 58.6006 50.2305C58.5335 49.5638 58.5 48.9006 58.5 48.25C58.5 44.9676 59.3529 41.3112 60.8662 38.0254C59.0299 39.3369 56.8429 40.2002 54.2998 40.2002C49.9105 40.2001 46.8667 37.498 45.0957 34.4873C44.606 33.6548 44.1936 32.7667 43.8496 31.8496Z" stroke="#FFC59E" stroke-width="7" stroke-linecap="round" stroke-linejoin="round"/>
</svg>
