<svg width="112" height="112" viewBox="0 0 112 112" fill="none" xmlns="http://www.w3.org/2000/svg">
<path d="M61.6787 8.61523C73.2445 -2.38024 91.5042 -2.20113 102.853 9.14746L103.385 9.69238C114.206 21.0746 114.204 38.9401 103.385 50.3213L102.853 50.8672L97.0713 56.6475C105.699 61.7994 111.493 71.2307 111.493 81.9932C111.493 98.26 98.26 111.493 81.9932 111.493C71.2309 111.493 61.7994 105.699 56.6475 97.0713L50.8672 102.853C39.5173 114.203 21.2567 114.379 9.69238 103.385L9.14746 102.853C-2.38267 91.3226 -2.38139 72.6617 9.14746 61.1328L61.1328 9.14746L61.6787 8.61523ZM14.4111 66.3975C5.79051 75.0181 5.79169 88.9696 14.4111 97.5889L14.8193 97.9863C23.4666 106.207 37.1176 106.073 45.6025 97.5889L53.5107 89.6807C52.8483 87.2282 52.4922 84.6512 52.4922 81.9932C52.4922 75.2994 54.7348 69.1187 58.5059 64.1631L37.5752 43.2324L14.4111 66.3975ZM78.2705 60.2529C67.8753 62.0271 59.9365 71.1009 59.9365 81.9932C59.9367 92.8853 67.8755 101.957 78.2705 103.731V60.2529ZM85.7148 103.731C96.11 101.957 104.049 92.8852 104.049 81.9932C104.049 71.1007 96.1102 62.0269 85.7148 60.2529V103.731ZM97.5889 14.4111C89.1029 5.92514 75.451 5.79383 66.8047 14.0137L66.3975 14.4111L42.8389 37.9688L63.7207 58.8506C68.7486 54.8725 75.0981 52.4922 81.9932 52.4922C84.6512 52.4922 87.2282 52.8471 89.6807 53.5098L97.5889 45.6025L97.9863 45.1943C106.077 36.6843 106.076 23.3282 97.9863 14.8193L97.5889 14.4111Z" fill="#FFC59E" stroke="#FFC59E"/>
</svg>
